<?xml version="1.0" encoding="UTF-8" standalone="no"?>
<!-- Creator: CorelDRAW X7 -->

<svg
   xml:space="preserve"
   width="50"
   height="34.836323"
   version="1.0"
   style="clip-rule:evenodd;fill-rule:evenodd;image-rendering:optimizeQuality;shape-rendering:geometricPrecision;text-rendering:geometricPrecision"
   viewBox="0 0 50 34.836323"
   id="svg797"
   sodipodi:docname="Add to cart.svg"
   inkscape:version="1.1.2 (b8e25be833, 2022-02-05)"
   xmlns:inkscape="http://www.inkscape.org/namespaces/inkscape"
   xmlns:sodipodi="http://sodipodi.sourceforge.net/DTD/sodipodi-0.dtd"
   xmlns="http://www.w3.org/2000/svg"
   xmlns:svg="http://www.w3.org/2000/svg"><sodipodi:namedview
   id="namedview799"
   pagecolor="#ffffff"
   bordercolor="#666666"
   borderopacity="1.0"
   inkscape:pageshadow="2"
   inkscape:pageopacity="0.0"
   inkscape:pagecheckerboard="0"
   showgrid="false"
   inkscape:zoom="12.623853"
   inkscape:cx="23.883358"
   inkscape:cy="16.159884"
   inkscape:window-width="1366"
   inkscape:window-height="745"
   inkscape:window-x="-8"
   inkscape:window-y="-8"
   inkscape:window-maximized="1"
   inkscape:current-layer="Layer_x0020_1" />
 <defs
   id="defs776">
  <style
   type="text/css"
   id="style774">
   <![CDATA[
    .str1 {stroke:#9600C8;stroke-width:18.7455}
    .str0 {stroke:#9600C8;stroke-width:1.1336}
    .fil3 {fill:none}
    .fil2 {fill:#9600C8}
    .fil0 {fill:white}
    .fil1 {fill:#9600C8;fill-rule:nonzero}
   ]]>
  </style>
 </defs>
<symbol
   id="Symbol1"
   viewBox="699 702 18 14"
   transform="translate(-487.73232,-455)">
 <path
   class="fil0 str0"
   d="m 707,712 c 0,0 0,0 0,1 0,1 -1,2 -1,2 -1,0 -2,-1 -2,-2 0,-1 0,-1 1,-1 h -1 l -4,-10 v 0 h 17 l -4,10 v 0 c 0,0 0,0 0,1 0,1 -1,2 -2,2 0,0 -1,-1 -1,-2 0,-1 0,-1 0,-1 z"
   id="path778" />
</symbol>
 <g
   id="Layer_x0020_1"
   inkscape:label="Layer 1"
   inkscape:groupmode="layer"
   transform="translate(-487.73232,-455)">
  <metadata
   id="CorelCorpID_0Corel-Layer" />
  
  <g
   id="g2348"><g
     id="Cart_x0020_Icon.cdr"
     transform="matrix(0.12713986,0,0,0.12713986,425.7221,397.15136)">
   <path
   class="fil1"
   d="M 642,675 H 760 L 832,526 H 570 Z m 59,0 m 95,-75 m -95,-74 m -95,74"
   id="path782" />
   <ellipse
   class="fil2"
   cx="648"
   cy="698"
   rx="30"
   ry="31"
   id="ellipse784" />
   <ellipse
   class="fil2"
   cx="753"
   cy="698"
   rx="30"
   ry="31"
   id="ellipse786" />
   <path
   class="fil3 str1"
   d="M 585,534 C 551,471 558,464 488,466"
   id="path788" />
  </g><g
     id="g794"
     transform="matrix(0.12713986,0,0,0.12713986,425.7221,397.15136)">
   <path
   class="fil1"
   d="m 796,587 h 36 v -40 h 41 v -43 h -41 v -41 h -36 v 41 h -40 v 43 h 40 z m 18,0 m 18,-20 m 21,-20 m 20,-22 m -20,-21 m -21,-20 m -18,-21 m -18,21 m -20,20 m -20,21 m 20,22 m 20,20"
   id="path791" />
   <path
   id="1"
   class="fil0"
   d="m 796,587 h 36 v -40 h 41 v -43 h -41 v -41 h -36 v 41 h -40 v 43 h 40 z m 36,8 h -36 -8 v -8 -32 h -32 -8 v -8 -43 -8 h 8 32 v -33 -8 h 8 36 8 v 8 33 h 33 8 v 8 43 8 h -8 -33 v 32 8 z" />
  </g></g>
 </g>
</svg>
