<?xml version="1.0" encoding="UTF-8" standalone="no"?>
<!-- Creator: CorelDRAW X7 -->

<svg
   xml:space="preserve"
   width="100"
   height="105.46242"
   version="1.0"
   style="clip-rule:evenodd;fill-rule:evenodd;image-rendering:optimizeQuality;shape-rendering:geometricPrecision;text-rendering:geometricPrecision"
   viewBox="0 0 127.68533 134.74072"
   id="svg1553"
   sodipodi:docname="ADEN.svg"
   inkscape:version="1.1.2 (b8e25be833, 2022-02-05)"
   xmlns:inkscape="http://www.inkscape.org/namespaces/inkscape"
   xmlns:sodipodi="http://sodipodi.sourceforge.net/DTD/sodipodi-0.dtd"
   xmlns="http://www.w3.org/2000/svg"
   xmlns:svg="http://www.w3.org/2000/svg"><sodipodi:namedview
   id="namedview1555"
   pagecolor="#ffffff"
   bordercolor="#666666"
   borderopacity="1.0"
   inkscape:pageshadow="2"
   inkscape:pageopacity="0.0"
   inkscape:pagecheckerboard="0"
   showgrid="false"
   inkscape:zoom="4.5368458"
   inkscape:cx="49.704136"
   inkscape:cy="52.900189"
   inkscape:window-width="1366"
   inkscape:window-height="745"
   inkscape:window-x="-8"
   inkscape:window-y="-8"
   inkscape:window-maximized="1"
   inkscape:current-layer="Layer_x0020_1" />
 <defs
   id="defs1467">
  <style
   type="text/css"
   id="style1465">
   <![CDATA[
    .str0 {stroke:white;stroke-width:20.4381;stroke-linecap:round;stroke-linejoin:round}
    .str1 {stroke:#B600E8;stroke-width:11.4728;stroke-linecap:round;stroke-linejoin:round}
    .str2 {stroke:#B600E8;stroke-width:11.4728;stroke-linecap:round;stroke-linejoin:round}
    .str4 {stroke:#B600E8;stroke-width:11.4728;stroke-linecap:round;stroke-linejoin:round}
    .str3 {stroke:#B600E8;stroke-width:11.4728;stroke-linecap:round;stroke-linejoin:round}
    .fil3 {fill:none}
    .fil0 {fill:#B600E8}
    .fil1 {fill:white}
    .fil2 {fill:#B600E8;fill-rule:nonzero}
   ]]>
  </style>
 </defs>
 <g
   id="Layer_x0020_1"
   inkscape:label="Layer 1"
   inkscape:groupmode="layer"
   transform="translate(-0.28672072,0.21765714)">
  <metadata
   id="CorelCorpID_0Corel-Layer" />
  <g
   id="_2392726920016"
   transform="matrix(0.07567847,0,0,0.07567847,-0.2024432,-0.20118518)">
   <g
   id="g1484">
    <g
   id="g1474">
     <path
   class="fil0 str0"
   d="m 747,1770 -167,-205 2,-30 2,-31 1,-31 v -32 l -1,-31 -2,-32 -2,-32 -4,-32 -4,-32 -5,-32 -6,-31 -6,-32 -7,-32 -8,-31 -9,-31 -10,-31 -10,-30 -11,-30 -12,-30 -12,-29 -13,-28 -14,-28 -15,-28 -15,-26 -16,-26 -16,-26 -18,-24 -17,-23 -19,-23 -19,-22 -20,-20 -20,-20 91,-24 26,25 24,26 24,27 23,28 23,29 21,31 21,31 20,33 19,33 18,34 17,35 17,36 15,36 15,37 14,38 12,38 12,38 11,39 10,39 10,39 8,40 7,40 6,40 5,40 4,40 4,39 2,40 1,39 v 40 l -1,39 -2,38 z"
   id="path1470" />
     <path
   class="fil0 str0"
   d="M 365,625 274,649 431,157 561,10 Z"
   id="path1472" />
    </g>
    <path
   class="fil0 str0"
   d="m 561,10 c 418,670 618,936 759,1760 H 747 C 787,1366 640,879 365,625 Z"
   id="path1476" />
    <g
   id="g1480">
     <path
   class="fil0 str0"
   d="M 54,1770 10,1573 256,717 362,700 Z"
   id="path1478" />
    </g>
    <path
   class="fil0 str0"
   d="m 362,700 c 226,312 347,663 307,1070 H 54 Z"
   id="path1482" />
   </g>
   <g
   id="g1489">
    <path
   class="fil1"
   d="m 1208,594 c 185,0 335,151 335,336 0,185 -150,336 -335,336 -186,0 -336,-151 -336,-336 0,-185 150,-336 336,-336 z"
   id="path1486" />
    <path
   id="1"
   class="fil2"
   d="m 1563,930 h -39 v 0 l -1,-16 -1,-16 -2,-16 -3,-16 -3,-15 -5,-15 -5,-15 -5,-14 -7,-14 -7,-14 -7,-13 -8,-13 -9,-12 -10,-12 -10,-11 -10,-11 -11,-11 -11,-10 -12,-9 -13,-9 -13,-8 -13,-8 -13,-7 -14,-6 -15,-6 -14,-5 -15,-4 -16,-3 -15,-3 -16,-2 -16,-1 -16,-1 v -39 h 18 l 18,1 18,3 17,3 18,4 16,5 17,5 16,7 16,7 15,7 15,9 15,9 13,10 14,11 13,11 12,12 12,12 11,13 11,13 10,14 9,15 8,15 8,15 7,16 7,16 5,16 5,17 4,17 3,18 2,18 2,18 z m -355,355 v -39 0 l 16,-1 16,-1 16,-2 15,-3 16,-3 15,-4 14,-5 15,-6 14,-6 13,-7 13,-8 13,-8 13,-9 12,-9 11,-10 11,-11 10,-11 10,-11 10,-12 9,-12 8,-13 7,-13 7,-14 7,-14 5,-14 5,-15 5,-15 3,-15 3,-16 2,-16 1,-16 1,-16 h 39 v 18 l -2,18 -2,18 -3,18 -4,17 -5,17 -5,16 -7,16 -7,16 -8,15 -8,15 -9,15 -10,14 -11,13 -11,13 -12,12 -12,12 -13,11 -14,11 -13,10 -15,9 -15,8 -15,8 -16,7 -16,7 -17,5 -16,5 -18,4 -17,3 -18,2 -18,2 z M 852,930 h 40 v 0 16 l 2,16 2,16 2,16 4,15 4,15 5,15 6,14 6,14 7,14 8,13 8,13 9,12 9,12 10,11 11,11 10,11 12,10 12,9 12,9 13,8 13,8 14,7 14,6 14,6 15,5 15,4 15,3 16,3 15,2 17,1 16,1 v 39 h -19 l -18,-2 -17,-2 -18,-3 -17,-4 -17,-5 -16,-5 -17,-7 -15,-7 -16,-8 -15,-8 -14,-9 -14,-10 -13,-11 -13,-11 -13,-12 -11,-12 -12,-13 -10,-13 -10,-14 -9,-15 -9,-15 -8,-15 -7,-16 -6,-16 -6,-16 -5,-17 -3,-17 -4,-18 -2,-18 -1,-18 z m 356,-355 v 39 0 l -16,1 -17,1 -15,2 -16,3 -15,3 -15,4 -15,5 -14,6 -14,6 -14,7 -13,8 -13,8 -12,9 -12,9 -12,10 -10,11 -11,11 -10,11 -9,12 -9,12 -8,13 -8,13 -7,14 -6,14 -6,14 -5,15 -4,15 -4,15 -2,16 -2,16 -2,16 v 16 h -40 l 1,-18 1,-18 2,-18 4,-18 3,-17 5,-17 6,-16 6,-16 7,-16 8,-15 9,-15 9,-15 10,-14 10,-13 12,-13 11,-12 13,-12 13,-11 13,-11 14,-10 14,-9 15,-9 16,-7 15,-7 17,-7 16,-5 17,-5 17,-4 18,-3 17,-3 18,-1 z" />
   </g>
   <g
   id="g1493">
    <path
   class="fil2"
   d="m 928,711 c 2,-11 11,-19 22,-17 11,1 19,11 18,21 z m 42,433 -40,5 -1,-13 -2,-14 -2,-14 -1,-14 -2,-13 -1,-14 -1,-14 -1,-13 -1,-14 v -14 l -1,-14 v -13 l -1,-14 v -14 -13 -14 -14 -13 l 1,-14 v -14 -14 l 1,-13 1,-14 v -14 l 1,-13 1,-14 1,-14 1,-13 1,-14 2,-13 1,-14 1,-14 40,4 -1,14 -2,13 -1,14 -1,13 -1,14 -1,13 -1,13 -1,14 -1,13 v 14 l -1,13 v 13 l -1,14 v 13 14 13 13 14 13 14 l 1,13 v 13 l 1,14 1,13 1,13 1,14 1,13 1,13 2,14 1,13 2,13 z m 0,0 c 1,11 -6,21 -17,22 -11,2 -21,-6 -23,-17 z"
   id="path1491" />
   </g>
   <g
   id="g1497">
    <path
   class="fil2"
   d="m 1053,635 c 1,-11 11,-18 21,-17 11,1 19,10 18,21 z m 44,591 -39,6 -3,-19 -2,-19 -2,-18 -2,-19 -2,-18 -2,-19 -2,-18 -1,-19 -1,-18 -1,-19 -1,-19 -1,-18 v -19 l -1,-18 v -19 -19 -18 -19 -19 l 1,-18 v -19 l 1,-19 1,-19 1,-18 1,-19 1,-19 1,-18 2,-19 1,-19 2,-19 2,-18 2,-19 39,4 -2,18 -1,19 -2,18 -2,19 -1,18 -1,19 -1,18 -1,19 -1,18 -1,19 -1,18 -1,19 v 18 18 19 l -1,18 1,18 v 19 18 l 1,18 1,19 v 18 l 1,18 2,19 1,18 2,18 1,18 2,18 2,19 2,18 3,18 z m 0,0 c 2,11 -6,20 -16,22 -11,1 -21,-6 -23,-16 z"
   id="path1495" />
   </g>
   <g
   id="g1501">
    <path
   class="fil2"
   d="m 1185,613 c 0,-11 9,-20 20,-20 11,0 20,9 20,20 z m 0,650 V 613 h 40 v 650 z m 40,0 c 0,11 -9,19 -20,19 -11,0 -20,-8 -20,-19 z"
   id="path1499" />
   </g>
   <g
   id="g1505">
    <path
   class="fil2"
   d="m 1331,632 c -1,-10 7,-20 18,-21 11,-1 20,7 21,18 z m 41,600 -39,-5 2,-18 2,-19 1,-18 2,-19 1,-19 2,-18 1,-19 1,-18 v -19 l 1,-18 1,-19 v -18 -19 -19 -18 -19 -18 l -1,-19 v -18 l -1,-19 v -19 l -1,-18 -1,-19 -1,-19 -1,-18 -1,-19 -2,-18 -1,-19 -1,-19 -2,-18 -1,-19 -2,-19 39,-3 2,19 2,18 1,19 2,19 1,19 1,19 1,18 1,19 1,19 1,19 1,19 1,19 1,18 v 19 19 l 1,19 v 19 19 18 19 l -1,19 v 19 l -1,19 -1,19 -1,19 -1,18 -1,19 -2,19 -1,19 -2,19 -2,19 z m 0,0 c -1,10 -11,18 -22,17 -11,-1 -19,-11 -17,-22 z"
   id="path1503" />
   </g>
   <g
   id="g1509">
    <path
   class="fil2"
   d="m 1549,995 -18,-35 c 10,-5 22,-1 27,8 5,10 1,22 -9,27 z m -658,-26 17,9 18,9 18,9 18,8 19,7 18,6 19,6 19,6 19,4 20,4 19,4 20,2 20,2 20,2 20,1 h 20 l 20,-1 21,-1 21,-2 20,-2 21,-3 21,-4 21,-5 21,-5 21,-6 21,-6 21,-7 22,-8 21,-9 21,-9 22,-10 21,-10 18,35 -22,11 -22,10 -23,10 -22,9 -22,8 -22,8 -23,6 -22,6 -22,6 -22,5 -22,4 -22,3 -22,3 -22,2 -22,1 h -22 -21 l -21,-1 -22,-1 -21,-2 -21,-3 -21,-4 -20,-4 -21,-5 -20,-6 -20,-6 -20,-7 -20,-8 -19,-8 -20,-9 -18,-10 -19,-10 z m 0,0 -20,34 c -10,-6 -13,-18 -7,-27 5,-10 17,-13 27,-7 z"
   id="path1507" />
   </g>
   <g
   id="g1513">
    <path
   class="fil2"
   d="m 1523,861 13,-38 c 10,4 16,15 12,26 -3,10 -14,16 -25,12 z m -635,-45 19,-6 20,-6 20,-5 20,-5 20,-5 21,-4 20,-4 20,-3 21,-2 21,-3 20,-2 21,-1 20,-1 21,-1 h 21 21 l 20,1 21,1 20,1 21,2 21,2 20,3 20,3 21,3 20,4 20,4 20,4 20,5 20,5 19,5 20,6 19,6 -13,38 -18,-6 -19,-5 -19,-6 -19,-5 -19,-4 -19,-4 -20,-4 -19,-4 -20,-3 -19,-3 -20,-2 -20,-3 -20,-1 -19,-2 -20,-1 h -20 -20 -20 l -20,1 -20,1 -20,1 -19,2 -20,2 -20,3 -20,3 -19,3 -19,4 -20,4 -19,5 -19,5 -19,6 -19,6 z m 0,0 12,38 c -10,3 -21,-2 -25,-13 -3,-10 2,-21 13,-25 z"
   id="path1511" />
   </g>
   <g
   id="g1517">
    <path
   class="fil2"
   d="m 1494,726 -39,6 c -1,-10 6,-21 17,-22 11,-2 21,6 22,16 z m -39,405 2,-13 2,-13 1,-13 2,-13 1,-13 1,-13 1,-13 1,-13 1,-13 1,-13 v -12 l 1,-13 v -13 -13 l 1,-13 v -12 -13 l -1,-12 v -13 -12 l -1,-13 -1,-12 v -12 l -1,-12 -1,-12 -1,-12 -1,-12 -2,-12 -1,-11 -1,-12 -2,-11 -2,-12 39,-6 2,12 2,12 1,12 2,12 1,12 1,12 1,12 1,13 1,12 1,13 1,12 v 13 l 1,13 v 13 13 13 13 13 13 13 l -1,13 -1,13 v 14 l -1,13 -1,13 -1,14 -1,13 -2,13 -1,14 -2,13 -1,13 -2,14 z m 0,0 40,6 c -2,10 -12,18 -23,16 -11,-1 -18,-11 -17,-22 z"
   id="path1515" />
   </g>
   <g
   id="g1549">
    <g
   id="g1523">
     <path
   class="fil1"
   d="m 1498,1023 h 159 c 12,0 23,11 23,23 v 197 c 0,13 -11,23 -23,23 h -159 c -13,0 -23,-10 -23,-23 v -197 c 0,-12 10,-23 23,-23 z"
   id="path1519" />
     <path
   id="path1521"
   class="fil2"
   d="m 1657,1032 h -159 v -17 h 159 v 0 z m 31,14 h -17 v 0 0 -1 -1 -1 0 l -1,-1 v -1 0 -1 h -1 v -1 -1 h -1 v -1 h -1 v -1 h -1 v -1 h -1 v -1 h -1 v 0 l -1,-1 h -1 v 0 h -1 l -1,-1 v 0 h -1 -1 -1 v 0 -17 h 1 2 2 1 l 2,1 h 1 l 2,1 h 1 l 1,1 2,1 h 1 l 1,1 2,1 1,1 1,1 1,1 1,1 1,1 1,1 1,2 1,1 v 1 l 1,2 1,1 v 1 l 1,2 v 1 l 1,2 v 2 1 2 z m -17,197 v -197 h 17 v 197 0 z m -14,32 v -17 0 0 h 1 l 1,-1 h 1 v 0 h 1 1 v -1 h 1 1 v -1 h 1 v 0 l 1,-1 v 0 l 1,-1 v 0 l 1,-1 v 0 l 1,-1 v 0 -1 l 1,-1 v 0 -1 -1 h 1 v -1 -1 0 -1 -1 h 17 v 2 1 2 2 l -1,1 v 2 l -1,1 v 2 l -1,1 -1,1 v 2 l -1,1 -1,1 -1,1 -1,1 -1,2 -1,1 -1,1 -1,1 h -2 l -1,1 -1,1 -2,1 h -1 l -1,1 h -2 l -1,1 h -2 -1 l -2,1 h -2 z m -159,-17 h 159 v 17 h -159 v 0 z m -32,-15 h 17 v 0 1 1 0 l 1,1 v 1 0 1 1 h 1 v 1 1 h 1 v 1 h 1 v 1 0 l 1,1 v 0 l 1,1 h 1 v 0 l 1,1 v 0 h 1 l 1,1 v 0 h 1 1 v 0 l 1,1 h 1 1 v 17 h -2 -2 l -1,-1 h -2 -1 l -2,-1 h -1 l -2,-1 h -1 l -1,-1 -2,-1 -1,-1 h -1 l -1,-1 -2,-1 -1,-1 -1,-2 -1,-1 -1,-1 v -1 l -1,-1 -1,-2 -1,-1 v -1 l -1,-2 v -1 l -1,-2 v -1 l -1,-2 v -2 -1 z m 17,-197 v 197 h -17 v -197 0 z m 15,-31 v 17 0 h -1 -1 -1 v 0 h -1 l -1,1 v 0 h -1 -1 v 1 h -1 v 0 l -1,1 h -1 v 1 h -1 v 1 0 l -1,1 v 0 l -1,1 v 1 0 l -1,1 v 0 1 1 0 l -1,1 v 1 1 0 h -17 v -1 -2 -1 l 1,-2 v -2 l 1,-1 v -2 l 1,-1 v -1 l 1,-2 1,-1 1,-1 v -2 l 1,-1 1,-1 1,-1 1,-1 2,-1 1,-1 1,-1 1,-1 h 2 l 1,-1 1,-1 h 2 l 1,-1 h 2 l 1,-1 h 2 1 2 z" />
    </g>
    <path
   class="fil3 str1"
   d="m 1494,1070 h 159"
   id="path1525" />
    <g
   id="g1529">
     <path
   class="fil2"
   d="m 1494,1131 c -3,0 -5,-3 -5,-6 0,-3 2,-6 5,-6 z m 64,0 h -64 v -12 h 64 z m 0,-12 c 3,0 5,3 5,6 0,3 -2,6 -5,6 z"
   id="path1527" />
    </g>
    <path
   class="fil3 str2"
   d="m 1494,1098 h 159"
   id="path1531" />
    <g
   id="g1535">
     <path
   class="fil2"
   d="m 1582,1131 c -3,0 -5,-3 -5,-6 0,-3 2,-6 5,-6 z m 71,0 h -71 v -12 h 71 z m 0,-12 c 3,0 5,3 5,6 0,3 -2,6 -5,6 z"
   id="path1533" />
    </g>
    <path
   class="fil3 str3"
   d="m 1494,1229 h 159"
   id="path1537" />
    <g
   id="g1541">
     <path
   class="fil2"
   d="m 1494,1168 v 12 c -3,0 -5,-3 -5,-6 0,-3 2,-6 5,-6 z m 64,0 v 12 h -64 v -12 z m 0,12 v -12 c 3,0 5,3 5,6 0,3 -2,6 -5,6 z"
   id="path1539" />
    </g>
    <path
   class="fil3 str4"
   d="m 1494,1201 h 159"
   id="path1543" />
    <g
   id="g1547">
     <path
   class="fil2"
   d="m 1582,1168 v 12 c -3,0 -5,-3 -5,-6 0,-3 2,-6 5,-6 z m 71,0 v 12 h -71 v -12 z m 0,12 v -12 c 3,0 5,3 5,6 0,3 -2,6 -5,6 z"
   id="path1545" />
    </g>
   </g>
  </g>
 </g>
</svg>
