<?xml version="1.0" encoding="UTF-8" standalone="no"?>
<!-- Creator: CorelDRAW X7 -->

<svg
   xml:space="preserve"
   width="50"
   height="39.673912"
   version="1.0"
   style="clip-rule:evenodd;fill-rule:evenodd;image-rendering:optimizeQuality;shape-rendering:geometricPrecision;text-rendering:geometricPrecision"
   viewBox="0 0 50 39.673912"
   id="svg1209"
   sodipodi:docname="Cart Icon.svg"
   inkscape:version="1.1.2 (b8e25be833, 2022-02-05)"
   xmlns:inkscape="http://www.inkscape.org/namespaces/inkscape"
   xmlns:sodipodi="http://sodipodi.sourceforge.net/DTD/sodipodi-0.dtd"
   xmlns="http://www.w3.org/2000/svg"
   xmlns:svg="http://www.w3.org/2000/svg"><sodipodi:namedview
   id="namedview1211"
   pagecolor="#ffffff"
   bordercolor="#666666"
   borderopacity="1.0"
   inkscape:pageshadow="2"
   inkscape:pageopacity="0.0"
   inkscape:pagecheckerboard="0"
   showgrid="false"
   inkscape:zoom="11.263336"
   inkscape:cx="25.347731"
   inkscape:cy="19.887536"
   inkscape:window-width="1366"
   inkscape:window-height="745"
   inkscape:window-x="-8"
   inkscape:window-y="-8"
   inkscape:window-maximized="1"
   inkscape:current-layer="Layer_x0020_1" />
 <defs
   id="defs1191">
  <style
   type="text/css"
   id="style1189">
   <![CDATA[
    .str0 {stroke:#9600C8;stroke-width:1.51181}
    .fil2 {fill:#9600C8}
    .fil0 {fill:white}
    .fil1 {fill:#9600C8;fill-rule:nonzero}
   ]]>
  </style>
 </defs>
<symbol
   id="Symbol1"
   viewBox="488 552 25 18"
   transform="translate(-351,-416)">
 <path
   class="fil0 str0"
   d="m 497,566 c 1,0 1,1 1,1 0,2 -1,3 -2,3 -1,0 -2,-1 -2,-3 0,0 0,-1 1,-1 h -2 l -4,-13 v 0 h 22 l -4,13 h -2 c 1,0 1,0 1,1 0,1 -1,2 -2,2 -1,0 -2,-1 -2,-2 0,-1 0,-1 0,-1 z"
   id="path1193" />
</symbol>
 <g
   id="Layer_x0020_1"
   inkscape:label="Layer 1"
   inkscape:groupmode="layer"
   transform="translate(-351,-416)">
  <metadata
   id="CorelCorpID_0Corel-Layer" />
  <g
   id="_2955955546864"
   transform="matrix(0.18115942,0,0,0.18115942,287.41304,340.63768)">
   <path
   class="fil1"
   d="m 474,591 h 95 L 627,472 H 417 Z m 48,0 m 76,-60 m -76,-59 m -76,59"
   id="path1197" />
   <ellipse
   class="fil2"
   cx="479"
   cy="610"
   rx="24"
   ry="25"
   id="ellipse1199" />
   <ellipse
   class="fil2"
   cx="563"
   cy="610"
   rx="24"
   ry="25"
   id="ellipse1201" />
   <g
   id="g1205">
    <path
   class="fil1"
   d="m 352,431 -1,-15 h 5 5 5 4 4 l 3,1 h 4 3 l 3,1 3,1 h 3 l 3,1 2,2 3,1 2,1 2,2 2,2 2,2 2,2 2,2 2,3 1,2 2,3 1,3 2,3 2,3 1,4 2,3 2,4 2,4 3,4 2,5 -13,7 -3,-5 -2,-4 -2,-4 -2,-4 -2,-4 -2,-3 -1,-3 -2,-3 -1,-2 -2,-3 -1,-2 -1,-2 -2,-2 -1,-1 -1,-1 -1,-1 -2,-1 -1,-1 -1,-1 -2,-1 h -2 l -1,-1 h -3 l -2,-1 h -3 -3 l -3,-1 h -4 -4 -4 -5 z"
   id="path1203" />
   </g>
  </g>
 </g>
</svg>
