<?xml version="1.0" encoding="UTF-8" standalone="no"?>
<!-- Creator: CorelDRAW X7 -->

<svg
   xml:space="preserve"
   width="25"
   height="26.44776"
   version="1.0"
   style="clip-rule:evenodd;fill-rule:evenodd;image-rendering:optimizeQuality;shape-rendering:geometricPrecision;text-rendering:geometricPrecision"
   viewBox="0 0 24.999986 26.450187"
   id="svg4086"
   sodipodi:docname="Search.svg"
   inkscape:version="1.1.2 (b8e25be833, 2022-02-05)"
   xmlns:inkscape="http://www.inkscape.org/namespaces/inkscape"
   xmlns:sodipodi="http://sodipodi.sourceforge.net/DTD/sodipodi-0.dtd"
   xmlns="http://www.w3.org/2000/svg"
   xmlns:svg="http://www.w3.org/2000/svg"><sodipodi:namedview
   id="namedview4088"
   pagecolor="#ffffff"
   bordercolor="#666666"
   borderopacity="1.0"
   inkscape:pageshadow="2"
   inkscape:pageopacity="0.0"
   inkscape:pagecheckerboard="0"
   showgrid="false"
   inkscape:zoom="5.0665918"
   inkscape:cx="50.033634"
   inkscape:cy="52.895519"
   inkscape:window-width="1366"
   inkscape:window-height="745"
   inkscape:window-x="-8"
   inkscape:window-y="-8"
   inkscape:window-maximized="1"
   inkscape:current-layer="Layer_x0020_1" />
 <defs
   id="defs4070">
  <style
   type="text/css"
   id="style4068">
   <![CDATA[
    .fil0 {fill:white}
    .fil1 {fill:#9600C8;fill-rule:nonzero}
   ]]>
  </style>
 </defs>
 <g
   id="Layer_x0020_1"
   inkscape:label="Layer 1"
   inkscape:groupmode="layer"
   transform="translate(-1643151.9,-2387630.9)">
  <metadata
   id="CorelCorpID_0Corel-Layer" />
  <g
   id="_2950527025760"
   transform="matrix(1.1527798e-4,0,0,1.1527798e-4,1642962.5,2387355.7)">
   <g
   id="g4076">
    <path
   class="fil0"
   d="m 1754855,2505373 1,3 c 3626,3624 3626,9554 0,13178 l -91121,91122 c -3626,3625 -9554,3625 -13179,0 l -2,-3 c -3624,-3624 -3624,-9554 0,-13178 l 91122,-91122 c 3625,-3625 9554,-3625 13179,0 z"
   id="path4073" />
    <path
   id="1"
   class="fil1"
   d="m 1759044,2503283 -7498,5405 -878,-1219 -1,-3 8375,-4187 z m -7498,11960 v -1 l 165,-172 152,-179 145,-187 129,-186 118,-188 109,-198 102,-206 90,-207 78,-206 67,-214 59,-219 47,-219 39,-224 25,-222 18,-225 3,-224 -3,-226 -18,-227 -25,-222 -39,-222 -47,-221 -59,-217 -67,-214 -78,-206 -90,-208 -102,-206 -109,-197 -118,-188 -129,-187 -145,-187 -152,-179 -165,-171 6621,-6624 495,521 462,541 430,554 400,575 373,596 335,607 304,614 269,626 242,640 208,649 176,652 142,658 111,664 80,666 48,669 16,670 -16,668 -48,670 -80,667 -111,661 -142,660 -176,651 -208,648 -242,641 -269,626 -304,614 -335,606 -373,597 -400,575 -430,556 -462,539 -495,521 v -2 z m -84500,97744 v 2 l -6621,-6623 91121,-91123 6621,6621 z m -12303,-5404 -877,-1219 173,165 178,154 183,141 188,130 196,123 196,109 203,98 204,90 211,79 214,68 216,57 220,49 223,36 223,28 226,17 225,4 226,-4 224,-17 225,-28 222,-36 219,-49 216,-57 216,-68 211,-79 204,-90 201,-98 196,-109 196,-123 190,-130 181,-141 180,-154 173,-165 6621,6625 -520,491 -539,464 -561,432 -575,402 -588,364 -605,338 -619,304 -629,273 -639,239 -644,209 -653,175 -660,144 -664,111 -666,80 -669,45 -670,18 -670,-18 -666,-45 -668,-80 -664,-111 -658,-144 -654,-175 -645,-209 -639,-239 -629,-273 -618,-304 -605,-338 -588,-364 -577,-402 -558,-432 -541,-464 -520,-491 -877,-1219 z m -8377,4183 7498,-5403 878,1217 1,3 -8375,4187 z m 7498,-11960 v 0 l -163,173 -154,179 -143,187 -131,186 -116,188 -111,198 -100,206 -91,207 -77,206 -69,214 -57,219 -49,219 -38,224 -26,222 -16,225 -5,226 5,224 16,227 26,222 38,222 49,221 57,217 69,214 77,206 91,208 100,206 111,197 116,188 131,187 143,187 154,179 163,173 -6621,6621 -493,-520 -464,-541 -428,-554 -402,-575 -371,-596 -337,-607 -302,-614 -271,-626 -240,-640 -210,-649 -174,-652 -144,-658 -110,-664 -81,-666 -46,-669 -18,-668 18,-670 46,-670 81,-667 110,-661 144,-660 174,-651 210,-648 240,-641 271,-626 302,-614 337,-606 371,-597 402,-575 428,-556 464,-539 493,-519 v 0 z m 84502,-97744 6621,6621 -91123,91123 -6621,-6621 z m 12301,5404 877,1217 -173,-163 -178,-154 -188,-144 -186,-131 -188,-116 -198,-111 -206,-99 -207,-92 -206,-77 -214,-68 -218,-57 -220,-49 -222,-38 -223,-26 -217,-15 -235,-5 -232,5 -218,15 -222,26 -224,38 -219,49 -219,57 -214,68 -206,77 -207,92 -206,99 -198,111 -188,116 -186,131 -186,144 -180,154 -173,163 -6621,-6621 520,-493 539,-464 555,-429 576,-401 596,-371 606,-337 615,-302 625,-272 641,-240 649,-209 650,-175 660,-144 662,-109 666,-82 679,-47 660,-15 660,15 678,47 667,82 663,109 658,144 652,175 649,209 641,240 625,272 615,302 606,337 596,371 576,401 554,429 540,464 520,493 877,1217 z" />
   </g>
   <g
   id="g4082">
    <path
   class="fil0"
   d="m 1781614,2392301 c 40727,0 73742,33014 73742,73740 0,40725 -33015,73740 -73742,73740 -40725,0 -73740,-33015 -73740,-73740 0,-40726 33015,-73740 73740,-73740 z"
   id="path4078" />
    <path
   id="path4080"
   class="fil1"
   d="m 1860039,2466041 h -9366 v 0 l -90,-3559 -266,-3511 -440,-3458 -607,-3400 -772,-3340 -929,-3278 -1085,-3209 -1236,-3134 -1384,-3057 -1526,-2979 -1663,-2894 -1796,-2800 -1926,-2710 -2051,-2611 -2172,-2506 -2287,-2399 -2399,-2288 -2508,-2171 -2610,-2051 -2709,-1928 -2800,-1794 -2891,-1662 -2979,-1526 -3057,-1382 -3134,-1236 -3207,-1084 -3273,-930 -3342,-771 -3398,-607 -3456,-439 -3508,-267 -3558,-89 v -9340 l 4031,103 3982,302 3927,498 3863,691 3795,876 3724,1057 3646,1233 3565,1405 3476,1572 3380,1732 3286,1887 3183,2042 3072,2187 2963,2325 2844,2466 2723,2594 2594,2723 2466,2846 2325,2961 2188,3072 2038,3183 1889,3282 1732,3381 1570,3476 1405,3562 1232,3643 1057,3723 876,3794 690,3861 498,3925 302,3978 z m -78425,78410 v -9340 0 l 3558,-90 3508,-266 3456,-440 3398,-606 3342,-771 3273,-930 3207,-1085 3134,-1235 3057,-1382 2979,-1527 2891,-1661 2800,-1794 2709,-1929 2610,-2050 2508,-2172 2399,-2287 2287,-2399 2172,-2507 2051,-2611 1926,-2709 1796,-2801 1663,-2893 1526,-2979 1384,-3057 1236,-3134 1085,-3209 929,-3278 772,-3340 607,-3400 440,-3458 266,-3511 90,-3559 h 9366 l -103,4029 -302,3979 -498,3925 -690,3861 -876,3794 -1057,3722 -1232,3644 -1405,3562 -1570,3476 -1732,3380 -1889,3283 -2038,3183 -2188,3072 -2325,2961 -2466,2846 -2594,2722 -2723,2595 -2844,2466 -2963,2325 -3072,2186 -3183,2043 -3286,1887 -3380,1732 -3476,1572 -3565,1405 -3646,1232 -3724,1057 -3795,876 -3863,691 -3927,499 -3982,302 z m -78423,-78410 h 9366 v 0 l 90,3559 266,3511 440,3458 608,3400 771,3340 930,3278 1085,3209 1235,3134 1384,3057 1526,2979 1662,2893 1796,2801 1928,2709 2050,2611 2172,2507 2288,2399 2398,2287 2508,2172 2610,2050 2709,1929 2801,1794 2890,1661 2979,1527 3057,1382 3133,1235 3205,1085 3277,930 3339,771 3399,606 3456,440 3508,266 3557,90 v 9340 l -4031,-103 -3982,-302 -3926,-499 -3863,-691 -3794,-876 -3724,-1057 -3647,-1232 -3564,-1405 -3475,-1572 -3381,-1732 -3286,-1887 -3183,-2043 -3072,-2186 -2962,-2325 -2845,-2466 -2722,-2595 -2595,-2722 -2466,-2846 -2325,-2961 -2186,-3072 -2041,-3183 -1887,-3283 -1732,-3380 -1570,-3476 -1406,-3562 -1232,-3644 -1057,-3722 -876,-3794 -689,-3861 -499,-3925 -302,-3979 z m 78423,-78410 v 9340 0 l -3557,89 -3508,267 -3456,439 -3399,607 -3339,771 -3277,930 -3205,1084 -3133,1236 -3057,1382 -2979,1526 -2890,1662 -2801,1794 -2709,1928 -2610,2051 -2508,2171 -2398,2288 -2288,2399 -2172,2506 -2050,2611 -1928,2710 -1796,2800 -1662,2894 -1526,2979 -1384,3057 -1235,3134 -1085,3209 -930,3278 -771,3340 -608,3400 -440,3458 -266,3511 -90,3559 h -9366 l 103,-4030 302,-3978 499,-3925 689,-3861 876,-3794 1057,-3723 1232,-3643 1406,-3562 1570,-3476 1732,-3381 1887,-3282 2041,-3183 2186,-3072 2325,-2961 2466,-2846 2595,-2723 2722,-2594 2845,-2466 2962,-2325 3072,-2187 3183,-2042 3286,-1887 3381,-1732 3475,-1572 3564,-1405 3647,-1233 3724,-1057 3794,-876 3863,-691 3926,-498 3982,-302 z" />
   </g>
  </g>
 </g>
</svg>
