<?xml version="1.0" encoding="UTF-8" standalone="no"?>
<!-- Creator: CorelDRAW X7 -->

<svg
   xml:space="preserve"
   width="277.85999"
   height="277.85999"
   version="1.0"
   style="clip-rule:evenodd;fill-rule:evenodd;image-rendering:optimizeQuality;shape-rendering:geometricPrecision;text-rendering:geometricPrecision"
   viewBox="0 0 27785.999 27785.999"
   id="svg34"
   sodipodi:docname="Shop Street.svg"
   inkscape:version="1.1.2 (b8e25be833, 2022-02-05)"
   xmlns:inkscape="http://www.inkscape.org/namespaces/inkscape"
   xmlns:sodipodi="http://sodipodi.sourceforge.net/DTD/sodipodi-0.dtd"
   xmlns:xlink="http://www.w3.org/1999/xlink"
   xmlns="http://www.w3.org/2000/svg"
   xmlns:svg="http://www.w3.org/2000/svg"><sodipodi:namedview
   id="namedview36"
   pagecolor="#ffffff"
   bordercolor="#666666"
   borderopacity="1.0"
   inkscape:pageshadow="2"
   inkscape:pageopacity="0.0"
   inkscape:pagecheckerboard="0"
   showgrid="false"
   inkscape:zoom="0.559"
   inkscape:cx="138.64043"
   inkscape:cy="139.53488"
   inkscape:window-width="1366"
   inkscape:window-height="745"
   inkscape:window-x="-8"
   inkscape:window-y="-8"
   inkscape:window-maximized="1"
   inkscape:current-layer="Layer_x0020_1" />
 <defs
   id="defs10">
  <style
   type="text/css"
   id="style2">
   <![CDATA[
    .str0 {stroke:#9600C8;stroke-width:94.4882}
    .fil4 {fill:#9900CB}
    .fil0 {fill:white}
    .fil3 {fill:white;fill-rule:nonzero}
    .fil2 {fill:url(#id0)}
    .fil1 {fill:url(#id1)}
   ]]>
  </style>
  <linearGradient
   id="id0"
   gradientUnits="userSpaceOnUse"
   x1="56001.102"
   y1="56001"
   x2="43999"
   y2="43999">
   <stop
   offset="0"
   style="stop-opacity:1; stop-color:#9900CC"
   id="stop4" />
   <stop
   offset="1"
   style="stop-opacity:1; stop-color:#67009A"
   id="stop6" />
  </linearGradient>
  <linearGradient
   id="id1"
   gradientUnits="userSpaceOnUse"
   xlink:href="#id0"
   x1="43053.602"
   y1="43053.5"
   x2="56946.398"
   y2="56946.5">
  </linearGradient>
 <linearGradient
   inkscape:collect="always"
   xlink:href="#id0"
   id="linearGradient38"
   gradientUnits="userSpaceOnUse"
   x1="56001.102"
   y1="56001"
   x2="43999"
   y2="43999" /></defs>
<symbol
   id="Symbol1"
   viewBox="49229 49436 1542 1129"
   transform="translate(-36107,-36107)">
 <path
   class="fil0 str0"
   d="m 49838,50265 c 33,26 55,66 55,112 0,77 -63,140 -141,140 -77,0 -140,-63 -140,-140 0,-46 22,-86 55,-112 h -79 l -291,-782 h 1 1405 l -291,782 h -72 c 28,26 45,62 45,103 0,78 -63,140 -140,140 -78,0 -141,-62 -141,-140 0,-41 17,-77 45,-103 z"
   id="path12" />
</symbol>
 <g
   id="Layer_x0020_1"
   inkscape:label="Layer 1"
   inkscape:groupmode="layer"
   transform="translate(-36107,-36107)">
  <metadata
   id="CorelCorpID_0Corel-Layer" />
  <g
   id="_2664897294592">
   <g
   id="g20">
    <path
   class="fil1"
   d="m 36282,50424 13294,13294 c 233,233 615,233 848,0 L 63718,50424 c 233,-233 233,-615 0,-848 L 50424,36282 c -233,-233 -615,-233 -848,0 L 36282,49576 c -233,233 -233,615 0,848 z"
   id="path16"
   style="fill:url(#id1)" />
    <path
   class="fil2"
   d="M 49634,61851 38149,50366 c -201,-201 -201,-531 0,-732 L 49634,38149 c 201,-201 531,-201 733,0 l 11484,11485 c 201,201 201,531 0,732 L 50367,61851 c -202,201 -532,201 -733,0 z"
   id="path18"
   style="fill:url(#linearGradient38)" />
   </g>
   <g
   id="g26">
    <path
   class="fil3"
   d="m 45109,51111 v -1849 c 336,280 701,490 1096,630 394,140 793,211 1194,211 235,0 442,-22 618,-63 176,-43 322,-101 439,-178 118,-75 207,-164 265,-265 57,-102 87,-213 87,-333 0,-163 -46,-307 -139,-433 -93,-129 -219,-245 -381,-354 -160,-109 -350,-213 -571,-312 -219,-101 -458,-204 -713,-308 -648,-269 -1133,-599 -1453,-988 -318,-391 -478,-862 -478,-1413 0,-433 87,-804 261,-1114 174,-310 411,-567 709,-767 299,-201 646,-348 1040,-442 395,-95 812,-143 1250,-143 433,0 816,26 1150,79 334,52 642,133 925,241 v 1731 c -138,-97 -290,-182 -454,-255 -164,-75 -334,-136 -508,-183 -174,-50 -346,-85 -518,-107 -172,-24 -336,-36 -490,-36 -213,0 -405,20 -579,62 -174,39 -322,96 -440,169 -121,74 -214,162 -279,263 -65,103 -99,218 -99,346 0,138 38,263 111,373 73,109 178,214 312,313 136,98 300,193 494,288 194,95 411,192 654,293 334,140 632,286 897,442 265,156 492,334 682,530 187,197 334,422 434,675 101,253 150,546 150,882 0,464 -86,851 -262,1167 -176,314 -415,569 -718,763 -300,196 -650,336 -1051,421 -399,85 -822,126 -1266,126 -455,0 -889,-39 -1300,-116 -411,-77 -767,-192 -1069,-346 z"
   id="path22" />
    <path
   class="fil3"
   d="m 49260,56547 v -1849 c 336,281 702,490 1097,630 393,141 792,212 1193,212 235,0 443,-22 619,-64 175,-43 322,-100 438,-177 119,-75 208,-164 265,-265 57,-103 87,-213 87,-334 0,-162 -46,-306 -138,-433 -93,-128 -220,-245 -382,-353 -160,-109 -349,-214 -571,-313 -219,-100 -458,-203 -713,-308 -648,-268 -1132,-598 -1452,-988 -318,-391 -478,-861 -478,-1412 0,-433 87,-805 260,-1115 174,-310 411,-567 710,-766 298,-202 646,-348 1039,-443 395,-95 812,-142 1251,-142 432,0 816,25 1150,79 334,51 642,132 924,241 v 1731 c -138,-97 -290,-182 -454,-255 -164,-75 -334,-137 -508,-184 -174,-49 -346,-85 -518,-107 -172,-23 -336,-35 -490,-35 -213,0 -405,20 -579,61 -173,40 -322,97 -440,170 -121,73 -214,162 -279,263 -65,102 -99,217 -99,346 0,138 38,262 111,373 73,109 178,213 312,312 137,99 301,194 494,289 194,94 411,191 654,292 334,140 633,287 897,443 265,156 492,334 682,529 188,198 334,423 435,676 100,253 150,545 150,881 0,464 -87,852 -263,1168 -176,314 -415,569 -717,762 -301,196 -650,336 -1051,421 -399,85 -822,127 -1267,127 -454,0 -889,-40 -1300,-117 -411,-77 -767,-191 -1069,-346 z"
   id="path24" />
   </g>
   <ellipse
   class="fil4"
   cx="62892"
   cy="37107"
   rx="1001"
   ry="1000"
   id="ellipse28" />
   <ellipse
   class="fil4"
   cx="37108"
   cy="62893"
   rx="1001"
   ry="1000"
   id="ellipse30" />
  </g>
 </g>
</svg>
