<?xml version="1.0" encoding="UTF-8" standalone="no"?>
<!-- Creator: CorelDRAW X7 -->

<svg
   xml:space="preserve"
   width="150"
   height="150.26979"
   version="1.0"
   style="clip-rule:evenodd;fill-rule:evenodd;image-rendering:optimizeQuality;shape-rendering:geometricPrecision;text-rendering:geometricPrecision"
   viewBox="0 0 150 150.26979"
   id="svg4395"
   sodipodi:docname="Shop Street.svg"
   inkscape:version="1.1.2 (b8e25be833, 2022-02-05)"
   xmlns:inkscape="http://www.inkscape.org/namespaces/inkscape"
   xmlns:sodipodi="http://sodipodi.sourceforge.net/DTD/sodipodi-0.dtd"
   xmlns:xlink="http://www.w3.org/1999/xlink"
   xmlns="http://www.w3.org/2000/svg"
   xmlns:svg="http://www.w3.org/2000/svg"><sodipodi:namedview
   id="namedview4397"
   pagecolor="#ffffff"
   bordercolor="#666666"
   borderopacity="1.0"
   inkscape:pageshadow="2"
   inkscape:pageopacity="0.0"
   inkscape:pagecheckerboard="0"
   showgrid="false"
   inkscape:zoom="0.536"
   inkscape:cx="168.84328"
   inkscape:cy="231.34328"
   inkscape:window-width="1366"
   inkscape:window-height="745"
   inkscape:window-x="-8"
   inkscape:window-y="-8"
   inkscape:window-maximized="1"
   inkscape:current-layer="Layer_x0020_1" />
 <defs
   id="defs4371">
  <style
   type="text/css"
   id="style4363">
   <![CDATA[
    .str0 {stroke:#9600C8;stroke-width:0.944882}
    .fil4 {fill:#9900CB}
    .fil0 {fill:white}
    .fil3 {fill:white;fill-rule:nonzero}
    .fil2 {fill:url(#id0)}
    .fil1 {fill:url(#id1)}
   ]]>
  </style>
  <linearGradient
   id="id0"
   gradientUnits="userSpaceOnUse"
   x1="528.51898"
   y1="467.021"
   x2="408.49799"
   y2="347.00101">
   <stop
   offset="0"
   style="stop-opacity:1; stop-color:#9900CC"
   id="stop4365" />
   <stop
   offset="1"
   style="stop-opacity:1; stop-color:#67009A"
   id="stop4367" />
  </linearGradient>
  <linearGradient
   id="id1"
   gradientUnits="userSpaceOnUse"
   xlink:href="#id0"
   x1="399.04401"
   y1="337.54599"
   x2="537.97302"
   y2="476.47601">
  </linearGradient>
 <linearGradient
   inkscape:collect="always"
   xlink:href="#id0"
   id="linearGradient4479"
   gradientUnits="userSpaceOnUse"
   x1="528.51898"
   y1="467.021"
   x2="408.49799"
   y2="347.00101" /></defs>
<symbol
   id="Symbol1"
   viewBox="492 494 15 11"
   transform="translate(-329.5,-267.75001)">
 <path
   class="fil0 str0"
   d="m 498,503 c 1,0 1,0 1,1 0,1 -1,1 -1,1 -1,0 -2,0 -2,-1 0,-1 0,-1 1,-1 h -1 l -3,-8 v 0 h 14 l -3,8 h -1 c 1,0 1,0 1,1 0,0 -1,1 -2,1 0,0 -1,-1 -1,-1 0,-1 0,-1 0,-1 z"
   id="path4373" />
</symbol>
 <g
   id="Layer_x0020_1"
   inkscape:label="Layer 1"
   inkscape:groupmode="layer"
   transform="translate(-329.5,-267.75001)">
  <metadata
   id="CorelCorpID_0Corel-Layer" />
  <g
   id="_2950531120848"
   transform="matrix(0.53956835,0,0,0.53956835,151.71223,123.28058)">
   <g
   id="g4381">
    <path
   class="fil1"
   d="m 331,411 133,133 c 3,3 6,3 9,0 L 606,411 c 2,-2 2,-6 0,-8 L 473,270 c -3,-3 -6,-3 -9,0 L 331,403 c -2,2 -2,6 0,8 z"
   id="path4377"
   style="fill:url(#id1)" />
    <path
   class="fil2"
   d="M 465,526 350,411 c -2,-2 -2,-6 0,-8 L 465,289 c 2,-3 5,-3 7,0 l 115,114 c 2,2 2,6 0,8 L 472,526 c -2,2 -5,2 -7,0 z"
   id="path4379"
   style="fill:url(#linearGradient4479)" />
   </g>
   <g
   id="g4387">
    <path
   class="fil3"
   d="m 420,418 v -18 c 3,2 7,5 11,6 3,1 7,2 11,2 3,0 5,0 7,-1 1,0 3,-1 4,-1 1,-1 2,-2 3,-3 0,-1 1,-2 1,-3 0,-2 -1,-3 -2,-5 -1,-1 -2,-2 -4,-3 -1,-1 -3,-2 -5,-3 -3,-1 -5,-2 -7,-3 -7,-3 -12,-6 -15,-10 -3,-4 -5,-9 -5,-14 0,-5 1,-8 3,-12 2,-3 4,-5 7,-7 3,-2 6,-4 10,-5 4,-1 8,-1 13,-1 4,0 8,0 11,1 4,0 7,1 10,2 v 17 c -2,-1 -3,-1 -5,-2 -2,-1 -3,-1 -5,-2 -2,0 -3,-1 -5,-1 -2,0 -4,0 -5,0 -2,0 -4,0 -6,0 -2,1 -3,1 -4,2 -2,1 -2,2 -3,3 -1,1 -1,2 -1,3 0,1 0,3 1,4 1,1 2,2 3,3 2,1 3,2 5,3 2,1 4,2 7,3 3,1 6,3 9,4 2,2 5,3 6,5 2,2 4,5 5,7 1,3 1,6 1,9 0,5 -1,8 -2,12 -2,3 -5,5 -8,7 -3,2 -6,4 -10,4 -4,1 -8,2 -13,2 -4,0 -9,-1 -13,-1 -4,-1 -7,-2 -10,-4 z"
   id="path4383" />
    <path
   class="fil3"
   d="m 461,472 v -18 c 3,3 7,5 11,6 4,2 8,2 12,2 2,0 4,0 6,0 2,-1 3,-1 5,-2 1,-1 2,-2 2,-3 1,-1 1,-2 1,-3 0,-2 0,-3 -1,-4 -1,-2 -2,-3 -4,-4 -2,-1 -4,-2 -6,-3 -2,-1 -4,-2 -7,-3 -6,-3 -11,-6 -14,-10 -4,-4 -5,-9 -5,-14 0,-4 1,-8 2,-11 2,-3 4,-6 7,-8 3,-2 7,-3 11,-4 4,-1 8,-2 12,-2 5,0 9,1 12,1 3,1 6,1 9,2 v 18 c -1,-1 -3,-2 -4,-3 -2,-1 -4,-1 -6,-2 -1,0 -3,0 -5,-1 -1,0 -3,0 -5,0 -2,0 -4,0 -5,1 -2,0 -4,1 -5,1 -1,1 -2,2 -3,3 0,1 -1,2 -1,3 0,2 1,3 2,4 0,1 1,2 3,3 1,1 3,2 5,3 2,1 4,2 6,3 3,1 6,3 9,4 3,2 5,4 7,6 2,2 3,4 4,7 1,2 2,5 2,8 0,5 -1,9 -3,12 -2,3 -4,6 -7,8 -3,2 -7,3 -11,4 -4,1 -8,1 -12,1 -5,0 -9,0 -13,-1 -4,-1 -8,-2 -11,-4 z"
   id="path4385" />
   </g>
   <circle
   class="fil4"
   cx="597"
   cy="278"
   r="10"
   id="circle4389" />
   <circle
   class="fil4"
   cx="340"
   cy="536"
   r="10"
   id="circle4391" />
  </g>
 </g>
</svg>
